<?xml version="1.0" encoding="iso-8859-1"?>
<!-- Generator: Adobe Illustrator 16.0.0, SVG Export Plug-In . SVG Version: 6.00 Build 0)  -->
<!DOCTYPE svg PUBLIC "-//W3C//DTD SVG 1.1//EN" "http://www.w3.org/Graphics/SVG/1.1/DTD/svg11.dtd">
<svg version="1.1" fill='#F5A524' id="Capa_1" xmlns="http://www.w3.org/2000/svg" xmlns:xlink="http://www.w3.org/1999/xlink" x="0px" y="0px"
	 width="82.878px" height="82.878px" viewBox="0 0 82.878 82.878" style="enable-background:new 0 0 82.878 82.878;"
	 xml:space="preserve">
<g>
	<g>
		<path d="M53.772,56.059c-1.263,0-2.289-1.026-2.289-2.282c0-12.341-10.027-22.381-22.373-22.381c-1.261,0-2.288-1.026-2.288-2.284
			c0-1.261,1.026-2.288,2.288-2.288c14.859,0,26.951,12.089,26.951,26.953C56.059,55.032,55.032,56.059,53.772,56.059z"/>
	</g>
	<g>
		<path d="M47.695,49.984c-1.264,0-2.29-1.026-2.29-2.289c0-5.637-4.582-10.223-10.222-10.223c-1.261,0-2.288-1.026-2.288-2.292
			c0-1.261,1.027-2.288,2.288-2.288c8.155,0,14.804,6.641,14.804,14.803C49.98,48.958,48.961,49.984,47.695,49.984z"/>
	</g>
	<path d="M71.52,8.643L64.306,2.22V0H9.326v74.24l9.251,8.638h54.976V8.643H71.52L71.52,8.643z M28.06,44.7
		c2.221-0.616,4.3-0.671,6.216-0.499V17.739h0.312l19.814-3.669l-3.997,10.734l-8.983,2.333v22.148h-0.2
		c0.178,3.538-3.665,7.405-9.426,8.993c-6.276,1.719-12.191,0.079-13.222-3.672C17.547,50.86,21.791,46.415,28.06,44.7z
		 M71.109,80.301H19.916l-0.034-0.037V79.9l-0.365,0.008l-0.943-0.921l-0.311-0.318l-0.341-0.321l-3.528-3.453l-0.337-0.332
		L13.72,74.24h4.847h1.308h44.417V9.943v-1.3V3.968l5.264,4.675l1.465,1.3l0.075,0.073v70.284H71.109z"/>
</g>
<g>
</g>
<g>
</g>
<g>
</g>
<g>
</g>
<g>
</g>
<g>
</g>
<g>
</g>
<g>
</g>
<g>
</g>
<g>
</g>
<g>
</g>
<g>
</g>
<g>
</g>
<g>
</g>
<g>
</g>
</svg>
